HIERARCHY
ROOT Hips
{
	OFFSET 0.000000 0.000000 0.000000 
	CHANNELS 6 Xposition Yposition Zposition Zrotation Yrotation Xrotation
	JOINT LeftUpLeg
	{
		OFFSET 1.363060 -1.794630 0.839290 
		CHANNELS 3 Zrotation Yrotation Xrotation
		JOINT LeftLeg
		{
			OFFSET 2.448110 -6.726130 0.000000 
			CHANNELS 3 Zrotation Yrotation Xrotation
			JOINT LeftFoot
			{
				OFFSET 2.562200 -7.039590 0.000000 
				CHANNELS 3 Zrotation Yrotation Xrotation
				JOINT LeftToeBase
				{
					OFFSET 0.157640 -0.433110 2.322550 
					CHANNELS 3 Zrotation Yrotation Xrotation
					End Site
					{
						OFFSET 0.000000 0.000000 0.000000 
					}
				}
			}
		}
	}
	JOINT RightUpLeg
	{
		OFFSET -1.305520 -1.794630 0.839290 
		CHANNELS 3 Zrotation Yrotation Xrotation
		JOINT RightLeg
		{
			OFFSET -2.542530 -6.985550 0.000000 
			CHANNELS 3 Zrotation Yrotation Xrotation
			JOINT RightFoot
			{
				OFFSET -2.568260 -7.056230 0.000000 
				CHANNELS 3 Zrotation Yrotation Xrotation
				JOINT RightToeBase
				{
					OFFSET -0.164730 -0.452590 2.363150 
					CHANNELS 3 Zrotation Yrotation Xrotation
					End Site
					{
						OFFSET 0.000000 0.000000 0.000000 
					}
				}
			}
		}
	}
	JOINT Spine
	{
		OFFSET 0.028270 2.035590 -0.193380 
		CHANNELS 3 Zrotation Yrotation Xrotation
		JOINT Spine1
		{
			OFFSET 0.056720 2.048850 -0.042750 
			CHANNELS 3 Zrotation Yrotation Xrotation
			JOINT Neck1
			{
				OFFSET -0.054170 1.746240 0.172020 
				CHANNELS 3 Zrotation Yrotation Xrotation
				JOINT Head
				{
					OFFSET 0.104070 1.761360 -0.123970 
					CHANNELS 3 Zrotation Yrotation Xrotation
					End Site
					{
						OFFSET 0.000000 0.000000 0.000000 
					}
				}
			}
			JOINT LeftArm
			{
				OFFSET 3.362410 1.200890 -0.311210 
				CHANNELS 3 Zrotation Yrotation Xrotation
				JOINT LeftForeArm
				{
					OFFSET 4.983000 -0.000000 -0.000000 
					CHANNELS 3 Zrotation Yrotation Xrotation
					JOINT LeftHand
					{
						OFFSET 3.483560 -0.000000 -0.000000 
						CHANNELS 3 Zrotation Yrotation Xrotation
						JOINT LeftHandIndex1
						{
							OFFSET 0.715260 -0.000000 -0.000000 
							CHANNELS 3 Zrotation Yrotation Xrotation
							End Site
							{
								OFFSET 0.000000 0.000000 0.000000 
							}
						}
					}
				}
			}
			JOINT RightArm
			{
				OFFSET -3.136600 1.374050 -0.404650 
				CHANNELS 3 Zrotation Yrotation Xrotation
				JOINT RightForeArm
				{
					OFFSET -5.241900 -0.000000 -0.000000 
					CHANNELS 3 Zrotation Yrotation Xrotation
					JOINT RightHand
					{
						OFFSET -3.444170 -0.000000 -0.000000 
						CHANNELS 3 Zrotation Yrotation Xrotation
						JOINT RightHandIndex1
						{
							OFFSET -0.622530 -0.000000 -0.000000 
							CHANNELS 3 Zrotation Yrotation Xrotation
							End Site
							{
								OFFSET 0.000000 0.000000 0.000000 
							}
						}
					}
				}
			}
		}
	}
}
MOTION
Frames: 10
Frame Time: 0.041667
10.011099 17.850698 50.065994 -174.476413 5.580647 -178.128078 -13.715344 -21.784763 -6.007444 -1.971267 9.636713 27.397730 -5.962835 18.518045 -15.359205 0.662100 -5.204100 -14.491700 29.418955 18.978412 -2.920366 2.411374 -7.698492 23.250645 4.380251 -16.539273 -10.693171 -0.032000 -1.154900 3.175200 3.887375 1.650959 2.759537 -5.905163 0.286534 -9.724427 11.557653 -2.242262 23.579413 2.101300 0.727600 8.473300 -91.680271 5.109526 23.892628 29.339077 -29.730243 -9.359461 0.907883 1.111253 -4.292933 -7.125000 0.000000 0.000000 88.540605 -8.791561 50.801572 -22.673892 27.529741 -7.211264 0.520716 -0.227549 0.884988 7.125000 0.000000 0.000000 
10.011217 17.849401 50.069179 -175.391305 5.677024 -178.578482 -14.706294 -21.852309 -5.234235 -2.155286 9.378656 26.709085 -5.985733 18.616922 -15.402474 0.594000 -4.934100 -13.720600 28.550435 18.981702 -3.086000 2.214468 -8.012761 24.184944 4.377745 -16.479940 -10.772672 -0.018600 -0.881300 2.422300 3.301742 1.553177 3.088827 -5.614433 0.292463 -9.761033 9.980007 -1.981440 22.037534 1.343600 0.633800 7.782700 -91.634062 4.926358 23.336362 29.287467 -29.734979 -9.347857 1.043313 1.065147 -3.641663 -7.125000 0.000000 0.000000 88.621468 -8.730887 50.700140 -22.641761 27.508766 -7.197932 0.505268 -0.231492 0.927757 7.125000 0.000000 0.000000 
10.016407 17.848575 50.076375 -176.254514 5.800632 -179.038383 -15.629792 -21.787923 -4.472810 -2.346746 9.091218 25.925595 -6.137507 18.973535 -15.304264 0.556500 -4.778600 -13.278200 27.760254 19.114274 -3.193111 2.010248 -8.336699 25.175615 4.279126 -16.215535 -11.214714 -0.021000 -0.935000 2.569900 2.819652 1.500697 3.419658 -5.227283 0.318225 -9.915738 10.744281 -1.852912 22.744455 1.701600 0.807500 8.093100 -91.561701 4.785977 23.101130 29.190076 -29.672329 -9.313272 1.142772 1.036016 -2.528224 -7.125000 0.000000 0.000000 88.665710 -8.620382 50.587944 -22.615825 27.494621 -7.186980 0.490793 -0.237838 1.089149 7.125000 0.000000 0.000000 
10.023249 17.840082 50.086284 -178.080184 5.925545 179.974581 -17.741157 -21.693016 -3.305289 -2.493861 8.910552 25.485008 -6.039578 19.011480 -15.707193 0.475700 -4.423300 -12.270600 25.999103 19.148046 -2.820000 1.834838 -8.484946 25.846847 4.253173 -16.021357 -11.431726 -0.040400 -1.297200 3.566800 1.917085 1.407135 3.932911 -4.384690 0.407445 -10.371368 9.836163 -1.596759 22.110671 1.287600 0.831900 7.815100 -91.570382 4.726885 22.733975 29.079230 -29.612970 -9.279302 1.241537 1.002777 -0.188733 -7.125000 0.000000 0.000000 88.622146 -8.599521 50.528391 -22.603304 27.514371 -7.180785 0.482149 -0.242530 1.171899 7.125000 0.000000 0.000000 
10.024547 17.840317 50.090884 -178.010606 5.827676 -179.925801 -17.584227 -21.738601 -3.255575 -2.565491 8.768855 25.069398 -6.125790 19.093192 -15.338218 0.412100 -4.121000 -11.417300 26.044055 19.265384 -3.092951 1.775224 -8.638577 26.246958 4.096123 -15.723400 -12.112064 -0.096000 -1.998300 5.501000 2.014704 1.350930 3.885084 -4.356850 0.371100 -10.325107 10.587274 -1.362762 22.781948 1.635400 1.057400 8.106500 -91.514005 4.730749 22.022485 29.023834 -29.624028 -9.289861 1.389145 0.942685 2.711189 -7.125000 0.000000 0.000000 88.628966 -8.618098 50.309778 -22.602054 27.511584 -7.181070 0.487209 -0.243203 1.543646 7.125000 0.000000 0.000000 
10.025019 17.843385 50.093362 -177.841643 5.706567 -179.751111 -17.313047 -21.816610 -3.326188 -2.615641 8.673282 24.767906 -6.327510 19.463827 -15.085001 0.440600 -4.259100 -11.806800 26.193981 19.397860 -3.342108 1.757801 -8.741862 26.504961 3.883780 -15.361032 -13.152839 -0.168200 -2.642300 7.284400 2.060286 1.314484 3.854369 -4.453551 0.335818 -10.158323 9.554676 -1.005772 21.785360 1.117500 1.107600 7.690300 -91.324520 4.591685 20.881392 28.974930 -29.709827 -9.352507 1.615593 0.848068 6.443135 -7.125000 0.000000 0.000000 88.651450 -8.501019 50.073584 -22.548210 27.453015 -7.159413 0.491413 -0.244162 2.115439 7.125000 0.000000 0.000000 
10.023839 17.843385 50.091356 -177.783501 5.796277 -179.682048 -17.268140 -21.888970 -3.361671 -2.616731 8.685079 24.792090 -6.423498 19.711494 -15.233496 0.444800 -4.279300 -11.863900 26.218320 19.404487 -3.409473 1.776391 -8.734959 26.477653 3.800783 -15.210827 -13.525974 -0.153300 -2.522900 6.953100 2.101025 1.375689 3.860796 -4.499293 0.355529 -10.058683 9.454616 -0.617671 21.805326 1.062400 1.311400 7.712100 -91.246583 4.595767 21.157391 28.978046 -29.701668 -9.349998 1.647822 0.815060 6.076370 -7.125000 0.000000 0.000000 88.617119 -8.433951 49.946235 -22.523439 27.423986 -7.150231 0.487270 -0.244715 2.330710 7.125000 0.000000 0.000000 
10.026316 17.841261 50.092772 -177.784210 5.969756 -179.656701 -17.279256 -21.842192 -3.367371 -2.611411 8.696870 24.832466 -6.398358 19.668287 -15.293593 0.402800 -4.074600 -11.286600 26.199865 19.411861 -3.443820 1.779220 -8.732430 26.462228 3.767739 -15.110328 -13.495469 -0.138200 -2.396000 6.601400 2.167555 1.474773 3.814719 -4.463886 0.401506 -10.060942 9.246624 -0.175928 21.928383 0.974600 1.546400 7.771600 -91.175834 4.644258 21.428365 28.948320 -29.665022 -9.335595 1.676443 0.793474 5.639162 -7.125000 0.000000 0.000000 88.627171 -8.435219 49.743806 -22.503111 27.403783 -7.141721 0.484775 -0.244209 2.455110 7.125000 0.000000 0.000000 
10.032805 17.840671 50.101147 -177.731377 5.968164 -179.599624 -17.162398 -21.782402 -3.450865 -2.599581 8.701198 24.846688 -6.284213 19.360888 -15.132085 0.309300 -3.575700 -9.886000 26.267949 19.476299 -3.479472 1.783339 -8.739980 26.468207 3.735300 -15.051957 -13.610139 -0.162800 -2.599600 7.165900 2.243494 1.481258 3.725335 -4.438819 0.399416 -10.106239 9.130960 0.351180 21.975923 0.921500 1.822400 7.792300 -91.064512 4.704909 21.746889 28.871572 -29.579256 -9.295242 1.674720 0.804372 5.344551 -7.125000 0.000000 0.000000 88.685478 -8.359334 49.497317 -22.425285 27.320578 -7.105625 0.488721 -0.245476 2.647828 7.125000 0.000000 0.000000 
10.034456 17.836425 50.109877 -177.722439 5.874634 -179.715796 -17.175979 -21.856622 -3.348283 -2.598812 8.695502 24.859229 -6.093580 18.930632 -15.184328 0.161800 -2.591500 -7.143400 26.302554 19.370966 -3.429018 1.773296 -8.747454 26.512052 3.746712 -15.090873 -13.630376 -0.196200 -2.852500 7.868300 2.350624 1.404294 3.780893 -4.401020 0.358364 -10.204656 9.012111 1.002428 22.012640 0.878000 2.153500 7.823900 -91.050816 4.724767 21.926864 28.722267 -29.424475 -9.215193 1.666419 0.827359 5.379904 -7.125000 0.000000 0.000000 88.611917 -8.267323 49.464198 -22.372448 27.263623 -7.079602 0.488250 -0.246645 2.536744 7.125000 0.000000 0.000000 
